<svg id="Capa_1" enable-background="new 0 0 512 512" height="512" viewBox="0 0 512 512" width="512" xmlns="http://www.w3.org/2000/svg"><path d="m512 272v30l-30 30-30-30v-30l30-30z" fill="#ffdf40"/><path d="m511.999 302v-30l-30-30v90z" fill="#ffbe40"/><path d="m270 45v16l-75 30-75-30v-16c0-24.901 20.099-45 45-45h60c24.901 0 45 20.099 45 45z" fill="#67548c"/><path d="m224.999 0h-30v91l75-30v-16c0-24.901-20.099-45-45-45z" fill="#544473"/><g><path d="m375 61h-360c-8.401 0-15 6.599-15 15v421c0 8.399 6.599 15 15 15h360c8.401 0 15-6.601 15-15v-421c0-8.401-6.599-15-15-15z" fill="#f3f5f9"/></g><path d="m389.999 497v-421c0-8.401-6.599-15-15-15h-180v451h180c8.401 0 15-6.601 15-15z" fill="#d8e0f0"/><g id="Checklist_4_"><g><path d="m105 211c-3.838 0-7.676-1.465-10.605-4.395l-30-30c-5.859-5.859-5.859-15.352 0-21.211s15.352-5.859 21.211 0l19.394 19.395 49.395-49.395c5.859-5.859 15.352-5.859 21.211 0s5.859 15.352 0 21.211l-60 60c-2.93 2.93-6.768 4.395-10.606 4.395z" fill="#9bf"/></g><g><path d="m105 331c-3.838 0-7.676-1.465-10.605-4.395l-30-30c-5.859-5.859-5.859-15.352 0-21.211s15.352-5.859 21.211 0l19.394 19.395 49.395-49.395c5.859-5.859 15.352-5.859 21.211 0s5.859 15.352 0 21.211l-60 60c-2.93 2.93-6.768 4.395-10.606 4.395z" fill="#9bf"/></g><g><path d="m105 451c-3.838 0-7.676-1.465-10.605-4.395l-30-30c-5.859-5.859-5.859-15.352 0-21.211s15.352-5.859 21.211 0l19.394 19.395 49.395-49.395c5.859-5.859 15.352-5.859 21.211 0s5.859 15.352 0 21.211l-60 60c-2.93 2.93-6.768 4.395-10.606 4.395z" fill="#9bf"/></g></g><g fill="#f98845"><path d="m512 107v165h-60v-135c0-24.901 20.099-45 45-45 8.401 0 15 6.599 15 15z"/><path d="m452 302h60v107.699c0 18.6-5.4 36.601-15 52.5v34.801c0 8.399-6.599 15-15 15s-15-6.601-15-15v-34.801c-9.6-15.899-15-33.9-15-52.5z"/></g><path d="m496.999 497v-34.801c9.6-15.899 15-33.9 15-52.5v-107.699h-30v210c8.401 0 15-6.601 15-15z" fill="#f36a3d"/><path d="m496.999 92c-5.292 0-10.289 1.077-15 2.745v177.255h30v-165c0-8.401-6.599-15-15-15z" fill="#f36a3d"/><g><path d="m315 211h-90c-8.291 0-15-6.709-15-15v-60c0-8.291 6.709-15 15-15h90c8.291 0 15 6.709 15 15v60c0 8.291-6.709 15-15 15z" fill="#cfd7e6"/></g><g><path d="m315 331h-90c-8.291 0-15-6.709-15-15v-60c0-8.291 6.709-15 15-15h90c8.291 0 15 6.709 15 15v60c0 8.291-6.709 15-15 15z" fill="#cfd7e6"/></g><g><path d="m315 451h-90c-8.291 0-15-6.709-15-15v-60c0-8.291 6.709-15 15-15h90c8.291 0 15 6.709 15 15v60c0 8.291-6.709 15-15 15z" fill="#cfd7e6"/></g><g><g id="Checklist_3_"><g><path d="m105 211c-3.838 0-7.676-1.465-10.605-4.395l-30-30c-5.859-5.859-5.859-15.352 0-21.211s15.352-5.859 21.211 0l19.394 19.395 49.395-49.395c5.859-5.859 15.352-5.859 21.211 0s5.859 15.352 0 21.211l-60 60c-2.93 2.93-6.768 4.395-10.606 4.395z" fill="#9bf"/></g><g><path d="m105 331c-3.838 0-7.676-1.465-10.605-4.395l-30-30c-5.859-5.859-5.859-15.352 0-21.211s15.352-5.859 21.211 0l19.394 19.395 49.395-49.395c5.859-5.859 15.352-5.859 21.211 0s5.859 15.352 0 21.211l-60 60c-2.93 2.93-6.768 4.395-10.606 4.395z" fill="#9bf"/></g><g><path d="m105 451c-3.838 0-7.676-1.465-10.605-4.395l-30-30c-5.859-5.859-5.859-15.352 0-21.211s15.352-5.859 21.211 0l19.394 19.395 49.395-49.395c5.859-5.859 15.352-5.859 21.211 0s5.859 15.352 0 21.211l-60 60c-2.93 2.93-6.768 4.395-10.606 4.395z" fill="#9bf"/></g></g></g></svg>